<svg width="48" height="37" viewBox="0 0 48 37" fill="none" xmlns="http://www.w3.org/2000/svg">
    <path d="M46.998 36.1527H0.999002C0.733791 36.1527 0.479443 36.0473 0.29191 35.8596C0.104378 35.6719 -0.000976562 35.4174 -0.000976562 35.152V33.1506C-0.000976562 32.8852 0.104378 32.6307 0.29191 32.443C0.479443 32.2554 0.733791 32.15 0.999002 32.15H4.09894V24.7248C4.097 24.3915 4.1783 24.0629 4.33547 23.769C4.49264 23.475 4.72069 23.225 4.99892 23.0417L8.99883 20.2998C9.16861 20.1993 9.36161 20.1449 9.55882 20.1417H10.4588C10.6562 20.1455 10.8492 20.2006 11.0188 20.3018L13.9987 22.3032V7.38092C14.009 7.03878 14.1062 6.7049 14.2812 6.41077C14.4561 6.11664 14.7031 5.87194 14.9987 5.69976L22.9985 0.296045C23.1673 0.192075 23.3604 0.134117 23.5585 0.12793L24.4585 0.12793C24.5185 0.12793 24.5625 0.12793 24.6005 0.12793C24.812 0.130732 25.019 0.189419 25.2005 0.298047L33.2003 5.72178C33.4717 5.90536 33.6939 6.15286 33.8474 6.44251C34.0008 6.73215 34.0808 7.05509 34.0803 7.38292V22.3132L37.0802 20.3118C37.2498 20.2106 37.4428 20.1555 37.6402 20.1517H38.5402C38.7376 20.1555 38.9306 20.2106 39.1002 20.3118L43.1001 23.0537C43.3783 23.237 43.6064 23.487 43.7636 23.781C43.9207 24.0749 44.002 24.4035 44.0001 24.7369V32.15H47C47.2652 32.15 47.5196 32.2554 47.7071 32.443C47.8946 32.6307 48 32.8852 48 33.1506V35.152C48 35.2836 47.9741 35.4139 47.9237 35.5354C47.8733 35.657 47.7995 35.7674 47.7064 35.8603C47.6133 35.9533 47.5029 36.0269 47.3813 36.0771C47.2598 36.1273 47.1295 36.153 46.998 36.1527ZM36.9982 28.1472C36.733 28.1472 36.4787 28.2526 36.2911 28.4403C36.1036 28.628 35.9983 28.8825 35.9983 29.1479V31.1493C35.9983 31.4147 36.1036 31.6692 36.2911 31.8569C36.4787 32.0445 36.733 32.15 36.9982 32.15H38.9982C39.2634 32.15 39.5178 32.0445 39.7053 31.8569C39.8928 31.6692 39.9982 31.4147 39.9982 31.1493V29.1479C39.9982 28.8825 39.8928 28.628 39.7053 28.4403C39.5178 28.2526 39.2634 28.1472 38.9982 28.1472H36.9982ZM26.9984 28.1472C26.7332 28.1472 26.4789 28.2526 26.2914 28.4403C26.1038 28.628 25.9985 28.8825 25.9985 29.1479V31.1493C25.9985 31.4147 26.1038 31.6692 26.2914 31.8569C26.4789 32.0445 26.7332 32.15 26.9984 32.15H28.9984C29.2636 32.15 29.518 32.0445 29.7055 31.8569C29.893 31.6692 29.9984 31.4147 29.9984 31.1493V29.1479C29.9984 28.8825 29.893 28.628 29.7055 28.4403C29.518 28.2526 29.2636 28.1472 28.9984 28.1472H26.9984ZM18.9986 28.1472C18.7334 28.1472 18.4791 28.2526 18.2915 28.4403C18.104 28.628 17.9986 28.8825 17.9986 29.1479V31.1493C17.9986 31.4147 18.104 31.6692 18.2915 31.8569C18.4791 32.0445 18.7334 32.15 18.9986 32.15H20.9986C21.2638 32.15 21.5181 32.0445 21.7057 31.8569C21.8932 31.6692 21.9986 31.4147 21.9986 31.1493V29.1479C21.9986 28.8825 21.8932 28.628 21.7057 28.4403C21.5181 28.2526 21.2638 28.1472 20.9986 28.1472H18.9986ZM8.99883 28.1472C8.73362 28.1472 8.47927 28.2526 8.29174 28.4403C8.10421 28.628 7.99885 28.8825 7.99885 29.1479V31.1493C7.99885 31.4147 8.10421 31.6692 8.29174 31.8569C8.47927 32.0445 8.73362 32.15 8.99883 32.15H10.9988C11.264 32.15 11.5183 32.0445 11.7059 31.8569C11.8934 31.6692 11.9988 31.4147 11.9988 31.1493V29.1479C11.9988 28.8825 11.8934 28.628 11.7059 28.4403C11.5183 28.2526 11.264 28.1472 10.9988 28.1472H8.99883ZM26.9984 20.1417C26.7332 20.1417 26.4789 20.2471 26.2914 20.4348C26.1038 20.6225 25.9985 20.877 25.9985 21.1424V23.1438C25.9985 23.4092 26.1038 23.6637 26.2914 23.8514C26.4789 24.039 26.7332 24.1444 26.9984 24.1444H28.9984C29.2636 24.1444 29.518 24.039 29.7055 23.8514C29.893 23.6637 29.9984 23.4092 29.9984 23.1438V21.1424C29.9984 20.877 29.893 20.6225 29.7055 20.4348C29.518 20.2471 29.2636 20.1417 28.9984 20.1417H26.9984ZM18.9986 20.1417C18.7334 20.1417 18.4791 20.2471 18.2915 20.4348C18.104 20.6225 17.9986 20.877 17.9986 21.1424V23.1438C17.9986 23.4092 18.104 23.6637 18.2915 23.8514C18.4791 24.039 18.7334 24.1444 18.9986 24.1444H20.9986C21.2638 24.1444 21.5181 24.039 21.7057 23.8514C21.8932 23.6637 21.9986 23.4092 21.9986 23.1438V21.1424C21.9986 20.877 21.8932 20.6225 21.7057 20.4348C21.5181 20.2471 21.2638 20.1417 20.9986 20.1417H18.9986ZM26.9984 12.1362C26.7332 12.1362 26.4789 12.2416 26.2914 12.4293C26.1038 12.6169 25.9985 12.8715 25.9985 13.1369V15.1383C25.9985 15.4037 26.1038 15.6582 26.2914 15.8458C26.4789 16.0335 26.7332 16.1389 26.9984 16.1389H28.9984C29.2636 16.1389 29.518 16.0335 29.7055 15.8458C29.893 15.6582 29.9984 15.4037 29.9984 15.1383V13.1369C29.9984 12.8715 29.893 12.6169 29.7055 12.4293C29.518 12.2416 29.2636 12.1362 28.9984 12.1362H26.9984ZM18.9986 12.1362C18.7334 12.1362 18.4791 12.2416 18.2915 12.4293C18.104 12.6169 17.9986 12.8715 17.9986 13.1369V15.1383C17.9986 15.4037 18.104 15.6582 18.2915 15.8458C18.4791 16.0335 18.7334 16.1389 18.9986 16.1389H20.9986C21.2638 16.1389 21.5181 16.0335 21.7057 15.8458C21.8932 15.6582 21.9986 15.4037 21.9986 15.1383V13.1369C21.9986 12.8715 21.8932 12.6169 21.7057 12.4293C21.5181 12.2416 21.2638 12.1362 20.9986 12.1362H18.9986Z"
          fill="white"/>
</svg>
