<svg width="20" height="19" viewBox="0 0 20 19" fill="none" xmlns="http://www.w3.org/2000/svg">
    <path d="M17.96 18.9976C17.8945 18.9975 17.8297 18.9841 17.7695 18.9581C17.7093 18.9321 17.6551 18.8942 17.61 18.8466L14.662 15.9066C13.2046 16.6074 11.6111 16.9798 9.99403 16.9976H9.93903C7.81243 16.9977 5.73461 16.3605 3.97369 15.1682C2.21278 13.9759 0.849584 12.2832 0.0600302 10.3086C0.0195032 10.21 -0.000896531 10.1042 3.02163e-05 9.99761C0.00241527 9.88838 0.0226838 9.78028 0.0600302 9.67761C0.761864 7.76593 2.05343 6.12696 3.74803 4.99761L1.14803 2.37761C1.10033 2.33265 1.06232 2.2784 1.03635 2.21822C1.01037 2.15803 0.996971 2.09317 0.996971 2.02761C0.996971 1.96206 1.01037 1.8972 1.03635 1.83701C1.06232 1.77682 1.10033 1.72258 1.14803 1.67761L1.67803 1.14761C1.72292 1.09978 1.77714 1.06166 1.83734 1.0356C1.89753 1.00954 1.96243 0.996094 2.02803 0.996094C2.09363 0.996094 2.15853 1.00954 2.21872 1.0356C2.27892 1.06166 2.33314 1.09978 2.37803 1.14761L18.838 17.6176C18.8857 17.6626 18.9237 17.7168 18.9497 17.777C18.9757 17.8372 18.9891 17.9021 18.9891 17.9676C18.9891 18.0332 18.9757 18.098 18.9497 18.1582C18.9237 18.2184 18.8857 18.2726 18.838 18.3176L18.308 18.8476C18.2632 18.8948 18.2092 18.9325 18.1494 18.9582C18.0896 18.984 18.0252 18.9974 17.96 18.9976ZM7.36603 8.59761C7.12769 9.02586 7.00177 9.50752 7.00003 9.99761C7.00003 10.7933 7.3161 11.5563 7.87871 12.1189C8.44132 12.6815 9.20438 12.9976 10 12.9976C10.4829 12.9805 10.9538 12.843 11.37 12.5976L7.36603 8.59761ZM17.6 13.8976L7.11503 3.40861C9.65859 2.67063 12.3858 2.90582 14.7654 4.06838C17.1451 5.23094 19.0068 7.23763 19.988 9.69761C20.0041 9.79696 20.0041 9.89826 19.988 9.99761C19.9913 10.1103 19.9708 10.2223 19.928 10.3266C19.4335 11.6784 18.6373 12.8997 17.6 13.8976Z"
          fill="#828282"/>
</svg>
