<svg width="23" height="14" viewBox="0 0 23 14" fill="none" xmlns="http://www.w3.org/2000/svg">
    <path d="M21.0033 14H15.8343C15.9701 13.6211 16.0286 13.2188 16.0063 12.8168C15.9839 12.4149 15.8813 12.0216 15.7043 11.66L14.2533 8.76C14.1172 8.49238 13.9565 8.23796 13.7733 8H17.7733C18.3304 7.99926 18.8766 8.15432 19.3502 8.44766C19.8237 8.741 20.2059 9.16092 20.4533 9.66L21.8943 12.55C21.9711 12.7023 22.0076 12.8717 22.0004 13.0421C21.9932 13.2125 21.9426 13.3782 21.8533 13.5235C21.764 13.6689 21.6391 13.7889 21.4903 13.8723C21.3415 13.9557 21.1739 13.9997 21.0033 14ZM13.0033 14H1.00334C0.832735 13.9996 0.66508 13.9555 0.516319 13.872C0.367557 13.7885 0.242635 13.6683 0.153436 13.5229C0.064236 13.3774 0.0137247 13.2116 0.00670612 13.0411C-0.000312478 12.8707 0.036395 12.7013 0.113337 12.549L1.55334 9.659C1.80085 9.15981 2.18314 8.73986 2.65694 8.44667C3.13075 8.15348 3.67716 7.99875 4.23434 8H9.77034C10.3281 7.99828 10.8752 8.15289 11.3496 8.4463C11.824 8.73971 12.2067 9.16017 12.4543 9.66L13.8943 12.55C13.9711 12.7023 14.0076 12.8717 14.0004 13.0421C13.9932 13.2125 13.9426 13.3782 13.8533 13.5235C13.764 13.6689 13.6391 13.7889 13.4903 13.8723C13.3415 13.9557 13.1739 13.9997 13.0033 14ZM15.0033 6C14.41 6 13.83 5.82405 13.3366 5.49441C12.8433 5.16477 12.4588 4.69623 12.2317 4.14805C12.0046 3.59987 11.9452 2.99667 12.061 2.41473C12.1767 1.83279 12.4625 1.29824 12.882 0.878681C13.3016 0.459123 13.8361 0.173401 14.4181 0.0576455C15 -0.0581102 15.6032 0.00129986 16.1514 0.228363C16.6996 0.455426 17.1681 0.839943 17.4977 1.33329C17.8274 1.82664 18.0033 2.40666 18.0033 3C18.0033 3.79565 17.6873 4.55871 17.1247 5.12132C16.562 5.68393 15.799 6 15.0033 6ZM7.00334 6C6.40999 6 5.82997 5.82405 5.33663 5.49441C4.84328 5.16477 4.45876 4.69623 4.2317 4.14805C4.00464 3.59987 3.94523 2.99667 4.06098 2.41473C4.17674 1.83279 4.46246 1.29824 4.88202 0.878681C5.30157 0.459123 5.83612 0.173401 6.41807 0.0576455C7.00001 -0.0581102 7.60321 0.00129986 8.15139 0.228363C8.69957 0.455426 9.1681 0.839943 9.49775 1.33329C9.82739 1.82664 10.0033 2.40666 10.0033 3C10.0033 3.79565 9.68727 4.55871 9.12466 5.12132C8.56205 5.68393 7.79899 6 7.00334 6Z"
          fill="#2DCC70"/>
</svg>
