<svg width="12" height="12" viewBox="0 0 12 12" fill="none" xmlns="http://www.w3.org/2000/svg">
    <path d="M11.3033 10.5963L10.5962 11.3034C10.5024 11.3971 10.3752 11.4498 10.2426 11.4498C10.11 11.4498 9.98286 11.3971 9.88909 11.3034L6 7.41429L2.11091 11.3034C2.01714 11.3971 1.88997 11.4498 1.75736 11.4498C1.62475 11.4498 1.49757 11.3971 1.40381 11.3034L0.696699 10.5963C0.602931 10.5025 0.550252 10.3753 0.550252 10.2427C0.550252 10.1101 0.602931 9.98294 0.696699 9.88917L4.58579 6.00008L0.696699 2.11099C0.602931 2.01723 0.550253 1.89005 0.550253 1.75744C0.550253 1.62483 0.602931 1.49766 0.696699 1.40389L1.40381 0.69678C1.49757 0.603012 1.62475 0.550333 1.75736 0.550333C1.88997 0.550333 2.01714 0.603012 2.11091 0.69678L6 4.58587L9.88909 0.69678C9.98286 0.603012 10.11 0.550333 10.2426 0.550333C10.3752 0.550333 10.5024 0.603012 10.5962 0.69678L11.3033 1.40389C11.3971 1.49766 11.4497 1.62483 11.4497 1.75744C11.4497 1.89005 11.3971 2.01723 11.3033 2.11099L7.41421 6.00008L11.3033 9.88917C11.3971 9.98294 11.4497 10.1101 11.4497 10.2427C11.4497 10.3753 11.3971 10.5025 11.3033 10.5963Z"
          fill="#BDBDBD"/>
</svg>
