<svg width="20" height="20" viewBox="0 0 20 20" fill="none" xmlns="http://www.w3.org/2000/svg">
    <path d="M16.7335 5.69167C16.7722 5.65261 16.8183 5.62162 16.869 5.60046C16.9198 5.57931 16.9743 5.56842 17.0293 5.56842C17.0843 5.56842 17.1388 5.57931 17.1895 5.60046C17.2403 5.62162 17.2864 5.65261 17.3251 5.69167L18.2085 6.575C18.2483 6.61241 18.2801 6.65759 18.3018 6.70776C18.3235 6.75792 18.3347 6.812 18.3347 6.86667C18.3347 6.92133 18.3235 6.97542 18.3018 7.02558C18.2801 7.07575 18.2483 7.12093 18.2085 7.15833L10.5501 14.8167C10.433 14.9339 10.2742 14.9999 10.1085 15L9.89179 15C9.72609 14.9999 9.56722 14.9339 9.45012 14.8167L1.79179 7.15833C1.75193 7.12093 1.72017 7.07575 1.69845 7.02558C1.67673 6.97542 1.66553 6.92133 1.66553 6.86667C1.66553 6.812 1.67673 6.75792 1.69845 6.70776C1.72017 6.65759 1.75193 6.61241 1.79179 6.575L2.67513 5.69167C2.71386 5.65261 2.75994 5.62162 2.81072 5.60046C2.86149 5.57931 2.91595 5.56842 2.97096 5.56842C3.02596 5.56842 3.08042 5.57931 3.1312 5.60046C3.18197 5.62162 3.22806 5.65261 3.26679 5.69167L9.99846 12.425L16.7335 5.69167Z"
          fill="#828282"/>
</svg>
