<svg width="44" height="41" viewBox="0 0 44 41" fill="none" xmlns="http://www.w3.org/2000/svg">
    <path d="M37.4 40.1544H28.6C28.0165 40.1544 27.4569 39.9201 27.0444 39.503C26.6318 39.086 26.4 38.5203 26.4 37.9306V27.3675C26.4 27.2201 26.3421 27.0787 26.2389 26.9744C26.1358 26.8701 25.9959 26.8116 25.85 26.8116H18.15C18.0041 26.8116 17.8642 26.8701 17.7611 26.9744C17.6579 27.0787 17.6 27.2201 17.6 27.3675V37.9306C17.6 38.5203 17.3682 39.086 16.9556 39.503C16.5431 39.9201 15.9835 40.1544 15.4 40.1544H6.6C6.01652 40.1544 5.45694 39.9201 5.04436 39.503C4.63178 39.086 4.4 38.5203 4.4 37.9306V22.364H2.2C1.61652 22.364 1.05695 22.1297 0.644365 21.7126C0.231785 21.2956 0 20.73 0 20.1402V18.9616C0.0012025 18.2747 0.15931 17.5973 0.462 16.9824L3.784 10.311C3.96733 9.94323 4.24807 9.63416 4.59495 9.41821C4.94182 9.20225 5.34121 9.0879 5.7486 9.08789H38.2514C38.6588 9.0879 39.0582 9.20225 39.4051 9.41821C39.7519 9.63416 40.0327 9.94323 40.216 10.311L43.538 16.9824C43.8407 17.5973 43.9988 18.2747 44 18.9616V20.1402C44 20.73 43.7682 21.2956 43.3556 21.7126C42.9431 22.1297 42.3835 22.364 41.8 22.364H39.6V37.9306C39.6 38.5203 39.3682 39.086 38.9556 39.503C38.5431 39.9201 37.9835 40.1544 37.4 40.1544ZM38.5 4.57357H5.5C5.20826 4.57357 4.92847 4.45643 4.72218 4.24791C4.51589 4.03939 4.4 3.75657 4.4 3.46168V1.23788C4.4 0.942982 4.51589 0.660166 4.72218 0.451644C4.92847 0.243123 5.20826 0.125977 5.5 0.125977L38.5 0.125977C38.7917 0.125977 39.0715 0.243123 39.2778 0.451644C39.4841 0.660166 39.6 0.942982 39.6 1.23788V3.46168C39.6 3.75657 39.4841 4.03939 39.2778 4.24791C39.0715 4.45643 38.7917 4.57357 38.5 4.57357Z"
          fill="white"/>
</svg>
