<svg width="48" height="48" viewBox="0 0 48 48" fill="none" xmlns="http://www.w3.org/2000/svg">
    <circle cx="23.9998" cy="20.5715" r="14.8571" fill="white"/>
    <path d="M24.7661 44H23.4341C23.0156 43.9997 22.6077 43.8681 22.268 43.6238C21.9282 43.3794 21.6736 43.0346 21.5401 42.638L20.5201 39.56C19.4157 36.9462 17.5447 34.7287 15.1541 33.2C11.6381 30.414 8.00012 27.528 8.00012 20C8.00012 15.7565 9.68583 11.6869 12.6864 8.68629C15.687 5.68571 19.7567 4 24.0001 4C28.2436 4 32.3132 5.68571 35.3138 8.68629C38.3144 11.6869 40.0001 15.7565 40.0001 20C40.0001 27.512 36.4181 30.4 32.9521 33.2C30.5866 34.7319 28.7468 36.9514 27.6801 39.56L26.6601 42.64C26.5263 43.0363 26.2716 43.3806 25.9318 43.6246C25.5921 43.8685 25.1844 43.9998 24.7661 44ZM19.2301 22C18.4891 21.9974 17.7622 22.202 17.1313 22.5908C16.5005 22.9795 15.9909 23.5369 15.6601 24.2L14.2801 26.98C15.3818 28.532 16.8391 29.7976 18.5302 30.671C20.2212 31.5444 22.0968 32.0001 24.0001 32.0001C25.9034 32.0001 27.779 31.5444 29.47 30.671C31.1611 29.7976 32.6184 28.532 33.7201 26.98L32.3401 24.2C32.0078 23.536 31.4965 22.9781 30.8639 22.5893C30.2313 22.2006 29.5026 21.9965 28.7601 22H19.2301ZM23.9801 9.5C22.7849 9.50265 21.6395 9.97966 20.7958 10.8262C19.952 11.6728 19.4788 12.8197 19.4801 14.015C19.4814 15.2102 19.9572 16.3561 20.8028 17.2008C21.6485 18.0455 22.7949 18.52 23.9901 18.52C25.1854 18.52 26.3318 18.0455 27.1774 17.2008C28.0231 16.3561 28.4988 15.2102 28.5001 14.015C28.5014 12.8197 28.0282 11.6728 27.1845 10.8262C26.3407 9.97966 25.1954 9.50265 24.0001 9.5H23.9801Z"
          fill="#2DCC70"/>
</svg>
