<svg width="8" height="14" viewBox="0 0 8 14" fill="none" xmlns="http://www.w3.org/2000/svg">
    <path d="M0.553337 1.61314C0.522094 1.58215 0.497296 1.54528 0.480373 1.50466C0.46345 1.46404 0.454738 1.42048 0.454738 1.37647C0.454738 1.33247 0.46345 1.2889 0.480373 1.24828C0.497296 1.20766 0.522094 1.17079 0.553337 1.13981L1.26 0.433139C1.28993 0.401252 1.32607 0.375837 1.36621 0.358463C1.40634 0.34109 1.44961 0.332127 1.49334 0.332127C1.53707 0.332127 1.58033 0.34109 1.62047 0.358463C1.6606 0.375837 1.69674 0.401252 1.72667 0.433139L7.85333 6.5598C7.94713 6.65348 7.99988 6.78057 8 6.91314L8 7.08647C7.99988 7.21903 7.94713 7.34613 7.85333 7.4398L1.72667 13.5665C1.69674 13.5984 1.6606 13.6238 1.62047 13.6411C1.58033 13.6585 1.53707 13.6675 1.49334 13.6675C1.4496 13.6675 1.40634 13.6585 1.36621 13.6411C1.32607 13.6238 1.28993 13.5984 1.26 13.5665L0.553336 12.8598C0.522093 12.8288 0.497295 12.7919 0.480372 12.7513C0.463449 12.7107 0.454737 12.6671 0.454737 12.6231C0.454737 12.5791 0.463449 12.5356 0.480372 12.4949C0.497295 12.4543 0.522093 12.4175 0.553336 12.3865L5.94 7.00114L0.553337 1.61314Z"
          fill="#2D1FEC"/>
</svg>
