<svg width="24" height="24" viewBox="0 0 24 24" fill="none" xmlns="http://www.w3.org/2000/svg">
    <path d="M19 21H5C4.46957 21 3.96086 20.7893 3.58579 20.4142C3.21071 20.0391 3 19.5304 3 19V5C3 4.46957 3.21071 3.96086 3.58579 3.58579C3.96086 3.21071 4.46957 3 5 3H19C19.5304 3 20.0391 3.21071 20.4142 3.58579C20.7893 3.96086 21 4.46957 21 5V19C21 19.5304 20.7893 20.0391 20.4142 20.4142C20.0391 20.7893 19.5304 21 19 21ZM8.5 11C8.36739 11 8.24021 11.0527 8.14645 11.1464C8.05268 11.2402 8 11.3674 8 11.5V12.5C8 12.6326 8.05268 12.7598 8.14645 12.8536C8.24021 12.9473 8.36739 13 8.5 13H11V15.5C11 15.6326 11.0527 15.7598 11.1464 15.8536C11.2402 15.9473 11.3674 16 11.5 16H12.5C12.6326 16 12.7598 15.9473 12.8536 15.8536C12.9473 15.7598 13 15.6326 13 15.5V13H15.5C15.6326 13 15.7598 12.9473 15.8536 12.8536C15.9473 12.7598 16 12.6326 16 12.5V11.5C16 11.3674 15.9473 11.2402 15.8536 11.1464C15.7598 11.0527 15.6326 11 15.5 11H13V8.5C13 8.36739 12.9473 8.24021 12.8536 8.14645C12.7598 8.05268 12.6326 8 12.5 8H11.5C11.3674 8 11.2402 8.05268 11.1464 8.14645C11.0527 8.24021 11 8.36739 11 8.5V11H8.5Z"
          fill="#202E55"/>
</svg>
