<svg width="22" height="22" viewBox="0 0 22 22" fill="none" xmlns="http://www.w3.org/2000/svg">
    <path d="M11.09 22H10.91C10.6478 21.998 10.3967 21.894 10.21 21.71L0.29 11.79C0.104706 11.6041 0.000456273 11.3525 0 11.09V10.91C0.00195512 10.6478 0.105979 10.3967 0.29 10.21L10.21 0.29C10.3967 0.105979 10.6478 0.00195512 10.91 0H11.09C11.3525 0.000456273 11.6041 0.104706 11.79 0.29L21.71 10.21C21.894 10.3967 21.998 10.6478 22 10.91V11.09C21.9995 11.3525 21.8953 11.6041 21.71 11.79L11.79 21.71C11.6041 21.8953 11.3525 21.9995 11.09 22ZM7 9C6.73478 9 6.48043 9.10536 6.29289 9.29289C6.10536 9.48043 6 9.73478 6 10V13.5C6 13.6326 6.05268 13.7598 6.14645 13.8536C6.24021 13.9473 6.36739 14 6.5 14H7.5C7.63261 14 7.75979 13.9473 7.85355 13.8536C7.94732 13.7598 8 13.6326 8 13.5V11H13V13C12.9994 13.0999 13.0288 13.1978 13.0843 13.2808C13.1398 13.3639 13.219 13.4285 13.3115 13.4661C13.4041 13.5038 13.5058 13.5129 13.6036 13.4922C13.7013 13.4715 13.7907 13.422 13.86 13.35L16.86 10.35C16.9477 10.254 16.9956 10.1281 16.9937 9.99802C16.9918 9.86795 16.9405 9.74349 16.85 9.65L13.85 6.65C13.78 6.58142 13.6915 6.5349 13.5953 6.51624C13.4991 6.49757 13.3995 6.50757 13.309 6.545C13.2187 6.58233 13.1412 6.64533 13.0863 6.7262C13.0314 6.80706 13.0014 6.90226 13 7V9H7Z"
          fill="#828282"/>
</svg>
