<svg width="16" height="16" viewBox="0 0 16 16" fill="none" xmlns="http://www.w3.org/2000/svg">
    <path d="M4.55334 2.61314C4.52209 2.58215 4.4973 2.54528 4.48037 2.50466C4.46345 2.46404 4.45474 2.42048 4.45474 2.37647C4.45474 2.33247 4.46345 2.2889 4.48037 2.24828C4.4973 2.20766 4.52209 2.17079 4.55334 2.13981L5.26 1.43314C5.28993 1.40125 5.32607 1.37584 5.36621 1.35846C5.40634 1.34109 5.44961 1.33213 5.49334 1.33213C5.53707 1.33213 5.58033 1.34109 5.62047 1.35846C5.6606 1.37584 5.69674 1.40125 5.72667 1.43314L11.8533 7.5598C11.9471 7.65348 11.9999 7.78057 12 7.91314L12 8.08647C11.9999 8.21903 11.9471 8.34613 11.8533 8.4398L5.72667 14.5665C5.69674 14.5984 5.6606 14.6238 5.62047 14.6411C5.58033 14.6585 5.53707 14.6675 5.49334 14.6675C5.4496 14.6675 5.40634 14.6585 5.36621 14.6411C5.32607 14.6238 5.28993 14.5984 5.26 14.5665L4.55334 13.8598C4.52209 13.8288 4.49729 13.7919 4.48037 13.7513C4.46345 13.7107 4.45474 13.6671 4.45474 13.6231C4.45474 13.5791 4.46345 13.5356 4.48037 13.4949C4.4973 13.4543 4.52209 13.4175 4.55334 13.3865L9.94 8.00114L4.55334 2.61314Z"
          fill="#828282"/>
</svg>
