<svg width="20" height="20" viewBox="0 0 20 20" fill="none" xmlns="http://www.w3.org/2000/svg">
    <path d="M5.69167 3.26654C5.65262 3.22781 5.62162 3.18172 5.60047 3.13095C5.57931 3.08018 5.56842 3.02571 5.56842 2.97071C5.56842 2.9157 5.57931 2.86124 5.60047 2.81047C5.62162 2.7597 5.65262 2.71361 5.69167 2.67488L6.575 1.79154C6.61241 1.75169 6.65759 1.71991 6.70776 1.6982C6.75792 1.67648 6.81201 1.66528 6.86667 1.66528C6.92133 1.66528 6.97542 1.67648 7.02558 1.6982C7.07575 1.71991 7.12093 1.75169 7.15834 1.79154L14.8167 9.44988C14.9339 9.56697 14.9999 9.72584 15 9.89154L15 10.1082C14.9999 10.2739 14.9339 10.4328 14.8167 10.5499L7.15833 18.2082C7.12093 18.2481 7.07575 18.2798 7.02558 18.3016C6.97542 18.3233 6.92133 18.3345 6.86667 18.3345C6.812 18.3345 6.75792 18.3233 6.70776 18.3016C6.65759 18.2798 6.61241 18.2481 6.575 18.2082L5.69167 17.3249C5.65261 17.2861 5.62162 17.2401 5.60046 17.1893C5.57931 17.1385 5.56842 17.084 5.56842 17.029C5.56842 16.974 5.57931 16.9196 5.60046 16.8688C5.62162 16.818 5.65261 16.7719 5.69167 16.7332L12.425 10.0015L5.69167 3.26654Z"
          fill="#828282"/>
</svg>
