<svg width="42" height="43" viewBox="0 0 42 43" fill="none" xmlns="http://www.w3.org/2000/svg">
    <path d="M35.6991 42.1527C35.3924 42.1611 35.0876 42.1028 34.8056 41.9819C34.5237 41.861 34.2713 41.6803 34.0658 41.4522L23.5664 30.9453C23.456 30.8398 23.3681 30.713 23.3081 30.5725C23.248 30.4321 23.2171 30.2809 23.2171 30.1281C23.2171 29.9753 23.248 29.8242 23.3081 29.6837C23.3681 29.5432 23.456 29.4164 23.5664 29.3109L24.733 28.1435L8.86708 12.2663L5.13393 10.165C4.74209 10.0604 4.38475 9.85418 4.09799 9.56721C3.81123 9.28025 3.60519 8.92266 3.50068 8.53054L0.234173 3.8608C0.101764 3.63724 0.05256 3.37405 0.095253 3.11771C0.137946 2.86137 0.269789 2.62837 0.467495 2.45987L2.33407 0.591974C2.50245 0.394128 2.73528 0.262192 2.99144 0.219468C3.2476 0.176745 3.5106 0.225984 3.734 0.358487L8.63376 3.39382C9.29319 3.84522 9.78529 4.50182 10.0337 5.26172L12.1336 8.99751L20.0665 17.1696L24.033 13.2003C23.5762 12.0075 23.3391 10.7418 23.333 9.46449C23.3404 6.98978 24.3261 4.61853 26.0747 2.86864C27.8234 1.11874 30.1929 0.132391 32.6659 0.125L33.3659 0.125C33.8325 0.125 34.0658 0.125 34.2992 0.358487L34.7658 0.825462C34.8762 0.930979 34.9641 1.0578 35.0241 1.19826C35.0841 1.33872 35.1151 1.4899 35.1151 1.64267C35.1151 1.79543 35.0841 1.94662 35.0241 2.08708C34.9641 2.22754 34.8762 2.35436 34.7658 2.45987L31.0327 6.19567C30.9223 6.30118 30.8344 6.428 30.7744 6.56846C30.7143 6.70892 30.6834 6.86011 30.6834 7.01287C30.6834 7.16564 30.7143 7.31682 30.7744 7.45728C30.8344 7.59774 30.9223 7.72456 31.0327 7.83008L34.2992 11.0989C34.4046 11.2094 34.5313 11.2973 34.6717 11.3574C34.8121 11.4175 34.9631 11.4484 35.1158 11.4484C35.2684 11.4484 35.4195 11.4175 35.5599 11.3574C35.7002 11.2973 35.827 11.2094 35.9324 11.0989L39.6656 7.3631C39.9224 7.24779 40.2007 7.18818 40.4822 7.18818C40.7637 7.18818 41.042 7.24779 41.2988 7.3631L41.7655 7.83008C41.7655 8.06357 41.9988 8.53054 41.9988 8.76403V9.46449C41.9914 11.9392 41.0057 14.3104 39.2571 16.0603C37.5084 17.8102 35.1389 18.7966 32.6659 18.804C31.463 18.8201 30.2703 18.5814 29.1661 18.1035L25.1996 22.0728L27.9995 24.8746L29.1661 23.7072C29.2715 23.5967 29.3983 23.5088 29.5386 23.4487C29.679 23.3887 29.83 23.3577 29.9827 23.3577C30.1354 23.3577 30.2864 23.3887 30.4268 23.4487C30.5672 23.5088 30.6939 23.5967 30.7993 23.7072L41.2988 34.2141C41.5267 34.4197 41.7072 34.6723 41.8281 34.9544C41.9489 35.2366 42.0072 35.5417 41.9988 35.8485V38.6504C42.0075 38.9573 41.9494 39.2625 41.8285 39.5447C41.7077 39.8269 41.5269 40.0794 41.2988 40.2848L40.1322 41.4522C39.927 41.6805 39.6746 41.8614 39.3926 41.9823C39.1106 42.1033 38.8057 42.1614 38.499 42.1527H35.6991ZM3.50068 42.1527C2.88928 42.1256 2.30867 41.8766 1.86743 41.4522L0.700817 40.2848C0.472719 40.0794 0.291973 39.8269 0.171108 39.5447C0.0502424 39.2625 -0.0078518 38.9573 0.000851631 38.6504V38.1834C-0.00738218 37.8766 0.0509251 37.5716 0.17176 37.2894C0.292595 37.0073 0.473089 36.7547 0.700817 36.549L14.0002 23.2402L18.8999 28.1435L5.60058 41.4522C5.39506 41.6801 5.14264 41.8608 4.8607 41.9817C4.57875 42.1026 4.27396 42.1609 3.96732 42.1527H3.50068Z"
          fill="white"/>
</svg>
