<svg width="16" height="20" viewBox="0 0 16 20" fill="none" xmlns="http://www.w3.org/2000/svg">
    <path d="M8.383 20H7.717C7.50775 19.9998 7.30381 19.934 7.13392 19.8119C6.96404 19.6897 6.83675 19.5173 6.77 19.319L6.26 17.78C5.70777 16.4731 4.77229 15.3643 3.577 14.6C1.819 13.207 0 11.764 0 8C0 5.87827 0.842855 3.84344 2.34315 2.34315C3.84344 0.842855 5.87827 0 8 0C10.1217 0 12.1566 0.842855 13.6569 2.34315C15.1571 3.84344 16 5.87827 16 8C16 11.756 14.209 13.2 12.476 14.6C11.2932 15.366 10.3733 16.4757 9.84 17.78L9.33 19.32C9.26308 19.5181 9.13572 19.6903 8.96585 19.8123C8.79597 19.9343 8.59213 19.9999 8.383 20ZM5.615 9C5.2445 8.9987 4.88102 9.10102 4.5656 9.29539C4.25018 9.48977 3.99539 9.76846 3.83 10.1L3.14 11.49C3.69085 12.266 4.41951 12.8988 5.26504 13.3355C6.11056 13.7722 7.04836 14.0001 8 14.0001C8.95164 14.0001 9.88944 13.7722 10.735 13.3355C11.5805 12.8988 12.3091 12.266 12.86 11.49L12.17 10.1C12.0039 9.76799 11.7482 9.48905 11.4319 9.29467C11.1156 9.1003 10.7513 8.99823 10.38 9H5.615ZM7.99 2.75C7.39237 2.75133 6.81971 2.98983 6.39782 3.41312C5.97594 3.83641 5.73934 4.40986 5.74 5.00749C5.74066 5.60512 5.97854 6.17805 6.40136 6.6004C6.82418 7.02276 7.39737 7.25999 7.995 7.25999C8.59263 7.25999 9.16582 7.02276 9.58864 6.6004C10.0115 6.17805 10.2493 5.60512 10.25 5.00749C10.2507 4.40986 10.0141 3.83641 9.59218 3.41312C9.17029 2.98983 8.59763 2.75133 8 2.75H7.99Z"
          fill="#2DCC70"/>
</svg>
