<svg width="24" height="24" viewBox="0 0 24 24" fill="none" xmlns="http://www.w3.org/2000/svg">
    <path d="M8.5 19H3.5C3.36739 19 3.24021 18.9473 3.14645 18.8536C3.05268 18.7598 3 18.6326 3 18.5V17.5C3 17.3674 3.05268 17.2402 3.14645 17.1464C3.24021 17.0527 3.36739 17 3.5 17H8.5C8.63261 17 8.75979 17.0527 8.85355 17.1464C8.94732 17.2402 9 17.3674 9 17.5V18.5C9 18.6326 8.94732 18.7598 8.85355 18.8536C8.75979 18.9473 8.63261 19 8.5 19ZM14.5 13H3.5C3.36739 13 3.24021 12.9473 3.14645 12.8536C3.05268 12.7598 3 12.6326 3 12.5V11.5C3 11.3674 3.05268 11.2402 3.14645 11.1464C3.24021 11.0527 3.36739 11 3.5 11H14.5C14.6326 11 14.7598 11.0527 14.8536 11.1464C14.9473 11.2402 15 11.3674 15 11.5V12.5C15 12.6326 14.9473 12.7598 14.8536 12.8536C14.7598 12.9473 14.6326 13 14.5 13ZM20.5 7H3.5C3.36739 7 3.24021 6.94732 3.14645 6.85355C3.05268 6.75979 3 6.63261 3 6.5V5.5C3 5.36739 3.05268 5.24021 3.14645 5.14645C3.24021 5.05268 3.36739 5 3.5 5H20.5C20.6326 5 20.7598 5.05268 20.8536 5.14645C20.9473 5.24021 21 5.36739 21 5.5V6.5C21 6.63261 20.9473 6.75979 20.8536 6.85355C20.7598 6.94732 20.6326 7 20.5 7Z"
          fill="black"/>
</svg>
