<svg width="24" height="24" viewBox="0 0 24 24" fill="none" xmlns="http://www.w3.org/2000/svg">
    <path d="M12.0001 18.9981C11.9345 18.998 11.8697 18.9846 11.8096 18.9586C11.7494 18.9326 11.6951 18.8947 11.6501 18.8471L7.86008 15.0591C7.81337 15.0126 7.7763 14.9574 7.751 14.8966C7.72571 14.8357 7.71269 14.7705 7.71269 14.7046C7.71269 14.6387 7.72571 14.5735 7.751 14.5126C7.7763 14.4518 7.81337 14.3966 7.86008 14.3501L8.06008 14.1501C8.10563 14.1025 8.16024 14.0646 8.2207 14.0385C8.28116 14.0124 8.34623 13.9986 8.41208 13.9981H15.5861C15.6519 13.9981 15.717 14.0113 15.7776 14.0369C15.8383 14.0625 15.8932 14.1 15.9391 14.1471L16.1391 14.3471C16.1858 14.3936 16.2229 14.4488 16.2482 14.5096C16.2735 14.5705 16.2865 14.6357 16.2865 14.7016C16.2865 14.7675 16.2735 14.8327 16.2482 14.8936C16.2229 14.9544 16.1858 15.0096 16.1391 15.0561L12.3491 18.8471C12.3041 18.8945 12.25 18.9324 12.19 18.9583C12.1301 18.9843 12.0654 18.9978 12.0001 18.9981ZM15.5861 9.99811H8.41208C8.34628 9.99809 8.28114 9.98489 8.22051 9.9593C8.15989 9.93371 8.105 9.89624 8.05908 9.84911L7.85908 9.64911C7.81222 9.60262 7.77502 9.54732 7.74964 9.48639C7.72425 9.42546 7.71118 9.36011 7.71118 9.29411C7.71118 9.2281 7.72425 9.16275 7.74964 9.10182C7.77502 9.04089 7.81222 8.98559 7.85908 8.93911L11.6501 5.14911C11.695 5.10141 11.7493 5.0634 11.8095 5.03742C11.8697 5.01145 11.9345 4.99805 12.0001 4.99805C12.0656 4.99805 12.1305 5.01145 12.1907 5.03742C12.2509 5.0634 12.3051 5.10141 12.3501 5.14911L16.1401 8.93911C16.1869 8.98559 16.2241 9.04089 16.2495 9.10182C16.2749 9.16275 16.288 9.2281 16.288 9.29411C16.288 9.36011 16.2749 9.42546 16.2495 9.48639C16.2241 9.54732 16.1869 9.60262 16.1401 9.64911L15.9401 9.84911C15.894 9.89636 15.839 9.9339 15.7782 9.9595C15.7174 9.98509 15.6521 9.99822 15.5861 9.99811Z"
          fill="#828282"/>
</svg>
