<svg width="28" height="28" viewBox="0 0 28 28" fill="none" xmlns="http://www.w3.org/2000/svg">
    <path d="M15.5556 9.33328C15.5556 9.64094 15.4643 9.94169 15.2934 10.1975C15.1225 10.4533 14.8795 10.6527 14.5953 10.7704C14.3111 10.8882 13.9983 10.919 13.6965 10.8589C13.3948 10.7989 13.1176 10.6508 12.9001 10.4332C12.6825 10.2157 12.5344 9.9385 12.4743 9.63675C12.4143 9.335 12.4451 9.02223 12.5629 8.73799C12.6806 8.45375 12.88 8.21081 13.1358 8.03988C13.3916 7.86895 13.6924 7.77772 14 7.77772C14.4126 7.77772 14.8082 7.94161 15.1 8.23333C15.3917 8.52506 15.5556 8.92072 15.5556 9.33328ZM15.5556 13.9999C15.5556 14.3076 15.4643 14.6084 15.2934 14.8642C15.1225 15.12 14.8795 15.3194 14.5953 15.4371C14.3111 15.5548 13.9983 15.5856 13.6965 15.5256C13.3948 15.4656 13.1176 15.3174 12.9001 15.0999C12.6825 14.8823 12.5344 14.6052 12.4743 14.3034C12.4143 14.0017 12.4451 13.6889 12.5629 13.4047C12.6806 13.1204 12.88 12.8775 13.1358 12.7065C13.3916 12.5356 13.6924 12.4444 14 12.4444C14.4126 12.4444 14.8082 12.6083 15.1 12.9C15.3917 13.1917 15.5556 13.5874 15.5556 13.9999ZM15.5556 18.6666C15.5556 18.9743 15.4643 19.275 15.2934 19.5308C15.1225 19.7866 14.8795 19.986 14.5953 20.1038C14.3111 20.2215 13.9983 20.2523 13.6965 20.1923C13.3948 20.1323 13.1176 19.9841 12.9001 19.7666C12.6825 19.549 12.5344 19.2718 12.4743 18.9701C12.4143 18.6683 12.4451 18.3556 12.5629 18.0713C12.6806 17.7871 12.88 17.5441 13.1358 17.3732C13.3916 17.2023 13.6924 17.1111 14 17.1111C14.4126 17.1111 14.8082 17.2749 15.1 17.5667C15.3917 17.8584 15.5556 18.2541 15.5556 18.6666Z"
          fill="#BDBDBD"/>
</svg>

