<svg width="20" height="20" viewBox="0 0 20 20" fill="none" xmlns="http://www.w3.org/2000/svg">
    <path d="M3.26654 14.3083C3.22781 14.3474 3.18173 14.3784 3.13095 14.3995C3.08018 14.4207 3.02571 14.4316 2.97071 14.4316C2.9157 14.4316 2.86124 14.4207 2.81047 14.3995C2.7597 14.3784 2.71361 14.3474 2.67488 14.3083L1.79154 13.425C1.75169 13.3876 1.71992 13.3424 1.6982 13.2922C1.67648 13.2421 1.66528 13.188 1.66528 13.1333C1.66528 13.0787 1.67648 13.0246 1.6982 12.9744C1.71992 12.9243 1.75169 12.8791 1.79154 12.8417L9.44988 5.18333C9.56697 5.06609 9.72584 5.00015 9.89154 5L10.1082 5C10.2739 5.00015 10.4328 5.06609 10.5499 5.18333L18.2082 12.8417C18.2481 12.8791 18.2798 12.9243 18.3016 12.9744C18.3233 13.0246 18.3345 13.0787 18.3345 13.1333C18.3345 13.188 18.3233 13.2421 18.3016 13.2922C18.2798 13.3424 18.2481 13.3876 18.2082 13.425L17.3249 14.3083C17.2861 14.3474 17.2401 14.3784 17.1893 14.3995C17.1385 14.4207 17.084 14.4316 17.029 14.4316C16.974 14.4316 16.9196 14.4207 16.8688 14.3995C16.818 14.3784 16.7719 14.3474 16.7332 14.3083L10.0015 7.575L3.26654 14.3083Z"
          fill="#828282"/>
</svg>
