<svg width="18" height="21" viewBox="0 0 18 21" fill="none" xmlns="http://www.w3.org/2000/svg">
    <path d="M10.3027 18.2405C9.16716 19.3702 7.63052 20.0044 6.02872 20.0044C4.42692 20.0044 2.89028 19.3702 1.75472 18.2405C0.631117 17.1155 0 15.5905 0 14.0005C0 12.4105 0.631117 10.8855 1.75472 9.76049L10.2547 1.32049C11.1081 0.474594 12.2611 0 13.4627 0C14.6643 0 15.8173 0.474594 16.6707 1.32049C17.092 1.73605 17.4264 2.23116 17.6547 2.77706C17.883 3.32296 18.0006 3.90878 18.0006 4.50049C18.0006 5.09221 17.883 5.67802 17.6547 6.22393C17.4264 6.76983 17.092 7.26493 16.6707 7.68049L8.87072 15.4205C8.59602 15.7194 8.26377 15.9598 7.89389 16.1271C7.524 16.2945 7.12413 16.3854 6.71824 16.3944C6.31236 16.4034 5.90884 16.3303 5.53191 16.1795C5.15497 16.0287 4.81238 15.8033 4.52471 15.5169C4.23703 15.2304 4.01019 14.8888 3.8578 14.5125C3.70541 14.1362 3.63062 13.733 3.6379 13.3271C3.64519 12.9212 3.73441 12.5209 3.9002 12.1503C4.06599 11.7797 4.30495 11.4464 4.60272 11.1705L9.54772 6.27049C9.59422 6.22348 9.64958 6.18615 9.7106 6.16068C9.77163 6.1352 9.83709 6.12209 9.90322 6.12209C9.96935 6.12209 10.0348 6.1352 10.0958 6.16068C10.1569 6.18615 10.2122 6.22348 10.2587 6.27049L10.7997 6.80049C10.8466 6.84697 10.8838 6.90227 10.9092 6.9632C10.9345 7.02413 10.9476 7.08949 10.9476 7.15549C10.9476 7.2215 10.9345 7.28685 10.9092 7.34778C10.8838 7.40871 10.8466 7.46401 10.7997 7.51049L5.85272 12.4105C5.65206 12.6529 5.5493 12.9616 5.56461 13.2759C5.57992 13.5902 5.7122 13.8875 5.93547 14.1092C6.15874 14.331 6.45686 14.4613 6.77127 14.4744C7.08568 14.4876 7.39367 14.3828 7.63472 14.1805L15.4347 6.45049C15.6917 6.19592 15.8956 5.89297 16.0348 5.55913C16.174 5.22529 16.2456 4.86718 16.2456 4.50549C16.2456 4.1438 16.174 3.78569 16.0348 3.45185C15.8956 3.11801 15.6917 2.81506 15.4347 2.56049C14.9132 2.04241 14.2079 1.75164 13.4727 1.75164C12.7376 1.75164 12.0323 2.04241 11.5107 2.56049L2.98972 11.0005C2.19514 11.7967 1.74888 12.8756 1.74888 14.0005C1.74888 15.1254 2.19514 16.2043 2.98972 17.0005C3.79848 17.7928 4.88555 18.2365 6.01772 18.2365C7.14989 18.2365 8.23696 17.7928 9.04572 17.0005L14.7027 11.3905C14.7985 11.2952 14.9281 11.2417 15.0632 11.2417C15.1983 11.2417 15.328 11.2952 15.4237 11.3905L15.9537 11.9205C16.0016 11.9654 16.0397 12.0196 16.0657 12.0798C16.0918 12.14 16.1052 12.2049 16.1052 12.2705C16.1052 12.3361 16.0918 12.401 16.0657 12.4612C16.0397 12.5214 16.0016 12.5756 15.9537 12.6205L10.3027 18.2405Z"
          fill="#828282"/>
</svg>
