<svg width="20" height="16" viewBox="0 0 20 16" fill="none" xmlns="http://www.w3.org/2000/svg">
    <path d="M18 16H2C1.46957 16 0.960859 15.7893 0.585786 15.4142C0.210714 15.0391 0 14.5304 0 14V5C0 4.46957 0.210714 3.96086 0.585786 3.58579C0.960859 3.21072 1.46957 3 2 3H3.17C3.70267 2.99856 4.21314 2.78646 4.59 2.41L6.12 0.880005C6.39768 0.600503 6.72802 0.37882 7.0919 0.227773C7.45579 0.076726 7.84601 -0.00068889 8.24 4.61853e-06H11.76C12.555 0.00266676 13.3168 0.318898 13.88 0.880005L15.41 2.41C15.7859 2.7861 16.2953 2.9982 16.827 3H18C18.5304 3 19.0391 3.21072 19.4142 3.58579C19.7893 3.96086 20 4.46957 20 5V14C20 14.5304 19.7893 15.0391 19.4142 15.4142C19.0391 15.7893 18.5304 16 18 16ZM6.5 8C6.36739 8 6.24021 8.05268 6.14645 8.14645C6.05268 8.24022 6 8.3674 6 8.5V9.5C6 9.63261 6.05268 9.75979 6.14645 9.85356C6.24021 9.94733 6.36739 10 6.5 10H9V12.5C9 12.6326 9.05268 12.7598 9.14645 12.8536C9.24021 12.9473 9.36739 13 9.5 13H10.5C10.6326 13 10.7598 12.9473 10.8536 12.8536C10.9473 12.7598 11 12.6326 11 12.5V10H13.5C13.6326 10 13.7598 9.94733 13.8536 9.85356C13.9473 9.75979 14 9.63261 14 9.5V8.5C14 8.3674 13.9473 8.24022 13.8536 8.14645C13.7598 8.05268 13.6326 8 13.5 8H11V5.5C11 5.3674 10.9473 5.24022 10.8536 5.14645C10.7598 5.05268 10.6326 5 10.5 5H9.5C9.36739 5 9.24021 5.05268 9.14645 5.14645C9.05268 5.24022 9 5.3674 9 5.5V8H6.5Z"
          fill="#828282"/>
</svg>
