<svg width="18" height="18" viewBox="0 0 18 18" fill="none" xmlns="http://www.w3.org/2000/svg">
    <path d="M5.6 7.8C5.2134 7.4134 4.5866 7.4134 4.2 7.8C3.8134 8.1866 3.8134 8.8134 4.2 9.2L5.75 10.75C6.99264 11.9926 9.00736 11.9926 10.25 10.75L17.3 3.7C17.6866 3.3134 17.6866 2.6866 17.3 2.3C16.9134 1.9134 16.2866 1.9134 15.9 2.3L9.55 8.65C8.69396 9.50604 7.30604 9.50604 6.45 8.65L5.6 7.8ZM16 12C16 14.2091 14.2091 16 12 16H6C3.79086 16 2 14.2091 2 12V6C2 3.79086 3.79086 2 6 2H11C11.5523 2 12 1.55228 12 1C12 0.447715 11.5523 0 11 0H2C0.9 0 0 0.9 0 2V16C0 17.1 0.9 18 2 18H16C17.1 18 18 17.1 18 16V9C18 8.44772 17.5523 8 17 8C16.4477 8 16 8.44772 16 9V12Z"
          fill="#828282"/>
</svg>
