<svg width="18" height="19" viewBox="0 0 18 19" fill="none" xmlns="http://www.w3.org/2000/svg">
    <path d="M16 19H2C1.46957 19 0.960859 18.7893 0.585786 18.4142C0.210714 18.0391 0 17.5304 0 17V4C0 3.46957 0.210714 2.96086 0.585786 2.58579C0.960859 2.21071 1.46957 2 2 2H3V0.5C3 0.367392 3.05268 0.240215 3.14645 0.146447C3.24021 0.0526784 3.36739 0 3.5 0L4.5 0C4.63261 0 4.75979 0.0526784 4.85355 0.146447C4.94732 0.240215 5 0.367392 5 0.5V2H13V0.5C13 0.367392 13.0527 0.240215 13.1464 0.146447C13.2402 0.0526784 13.3674 0 13.5 0L14.5 0C14.6326 0 14.7598 0.0526784 14.8536 0.146447C14.9473 0.240215 15 0.367392 15 0.5V2H16C16.5304 2 17.0391 2.21071 17.4142 2.58579C17.7893 2.96086 18 3.46957 18 4V17C18 17.5304 17.7893 18.0391 17.4142 18.4142C17.0391 18.7893 16.5304 19 16 19ZM2 6V17H16V6H2ZM13.5 14H12.5C12.3674 14 12.2402 13.9473 12.1464 13.8536C12.0527 13.7598 12 13.6326 12 13.5V12.5C12 12.3674 12.0527 12.2402 12.1464 12.1464C12.2402 12.0527 12.3674 12 12.5 12H13.5C13.6326 12 13.7598 12.0527 13.8536 12.1464C13.9473 12.2402 14 12.3674 14 12.5V13.5C14 13.6326 13.9473 13.7598 13.8536 13.8536C13.7598 13.9473 13.6326 14 13.5 14ZM9.5 14H4.5C4.36739 14 4.24021 13.9473 4.14645 13.8536C4.05268 13.7598 4 13.6326 4 13.5V12.5C4 12.3674 4.05268 12.2402 4.14645 12.1464C4.24021 12.0527 4.36739 12 4.5 12H9.5C9.63261 12 9.75979 12.0527 9.85355 12.1464C9.94732 12.2402 10 12.3674 10 12.5V13.5C10 13.6326 9.94732 13.7598 9.85355 13.8536C9.75979 13.9473 9.63261 14 9.5 14ZM13.5 10H8.5C8.36739 10 8.24021 9.94732 8.14645 9.85355C8.05268 9.75979 8 9.63261 8 9.5V8.5C8 8.36739 8.05268 8.24021 8.14645 8.14645C8.24021 8.05268 8.36739 8 8.5 8H13.5C13.6326 8 13.7598 8.05268 13.8536 8.14645C13.9473 8.24021 14 8.36739 14 8.5V9.5C14 9.63261 13.9473 9.75979 13.8536 9.85355C13.7598 9.94732 13.6326 10 13.5 10ZM5.5 10H4.5C4.36739 10 4.24021 9.94732 4.14645 9.85355C4.05268 9.75979 4 9.63261 4 9.5V8.5C4 8.36739 4.05268 8.24021 4.14645 8.14645C4.24021 8.05268 4.36739 8 4.5 8H5.5C5.63261 8 5.75979 8.05268 5.85355 8.14645C5.94732 8.24021 6 8.36739 6 8.5V9.5C6 9.63261 5.94732 9.75979 5.85355 9.85355C5.75979 9.94732 5.63261 10 5.5 10Z"
          fill="#828282"/>
</svg>
