<svg width="16" height="20" viewBox="0 0 16 20" fill="none" xmlns="http://www.w3.org/2000/svg">
    <path d="M3.865 20C3.35923 19.9986 2.87267 19.8061 2.50274 19.4612C2.1328 19.1163 1.90681 18.6444 1.87 18.14L1 6H15L14.15 18.14C14.1132 18.6444 13.8872 19.1163 13.5173 19.4612C13.1473 19.8061 12.6608 19.9986 12.155 20H3.865ZM15.5 4H0.5C0.367392 4 0.240215 3.94732 0.146447 3.85355C0.0526784 3.75979 0 3.63261 0 3.5V2.5C0 2.36739 0.0526784 2.24021 0.146447 2.14645C0.240215 2.05268 0.367392 2 0.5 2H5V1C5 0.734784 5.10536 0.48043 5.29289 0.292893C5.48043 0.105357 5.73478 0 6 0L10 0C10.2652 0 10.5196 0.105357 10.7071 0.292893C10.8946 0.48043 11 0.734784 11 1V2H15.5C15.6326 2 15.7598 2.05268 15.8536 2.14645C15.9473 2.24021 16 2.36739 16 2.5V3.5C16 3.63261 15.9473 3.75979 15.8536 3.85355C15.7598 3.94732 15.6326 4 15.5 4Z"
          fill="#BDBDBD"/>
</svg>
