<?xml version="1.0" encoding="UTF-8"?>
<svg xmlns="http://www.w3.org/2000/svg" xmlns:xlink="http://www.w3.org/1999/xlink" width="16pt" height="16pt"
     viewBox="0 0 16 16" version="1.1">
    <g id="surface1">
        <path style=" stroke:none;fill-rule:nonzero;fill:#828282;fill-opacity:1;"
              d="M 7.296875 2.199219 C 10.226562 1.988281 13.222656 3.085938 15.3125 5.148438 C 15.585938 5.429688 15.550781 5.921875 15.261719 6.179688 C 14.996094 6.492188 14.464844 6.5 14.191406 6.195312 C 12.402344 4.476562 9.878906 3.542969 7.398438 3.726562 C 5.339844 3.859375 3.34375 4.746094 1.851562 6.167969 C 1.71875 6.304688 1.546875 6.414062 1.351562 6.425781 C 0.863281 6.480469 0.410156 5.972656 0.515625 5.492188 C 0.542969 5.320312 0.65625 5.179688 0.78125 5.0625 C 2.53125 3.386719 4.882812 2.359375 7.296875 2.199219 Z M 7.296875 2.199219 "/>
        <path style=" stroke:none;fill-rule:nonzero;fill:#828282;fill-opacity:1;"
              d="M 7.226562 5.070312 C 9.46875 4.828125 11.800781 5.652344 13.386719 7.257812 C 13.632812 7.539062 13.601562 8.007812 13.328125 8.257812 C 13.074219 8.566406 12.570312 8.601562 12.285156 8.320312 C 11.269531 7.320312 9.894531 6.683594 8.46875 6.582031 C 6.738281 6.4375 4.96875 7.09375 3.738281 8.3125 C 3.453125 8.613281 2.921875 8.578125 2.667969 8.257812 C 2.390625 8 2.367188 7.523438 2.632812 7.246094 C 3.855469 6.023438 5.507812 5.246094 7.226562 5.070312 Z M 7.226562 5.070312 "/>
        <path style=" stroke:none;fill-rule:nonzero;fill:#828282;fill-opacity:1;"
              d="M 7.554688 7.90625 C 8.972656 7.765625 10.4375 8.304688 11.421875 9.332031 C 11.691406 9.613281 11.660156 10.097656 11.375 10.355469 C 11.117188 10.667969 10.601562 10.6875 10.320312 10.398438 C 9.765625 9.828125 8.996094 9.464844 8.199219 9.421875 C 7.292969 9.359375 6.382812 9.714844 5.738281 10.351562 C 5.582031 10.527344 5.347656 10.636719 5.105469 10.609375 C 4.546875 10.570312 4.164062 9.824219 4.546875 9.378906 C 5.320312 8.539062 6.421875 8.019531 7.554688 7.90625 Z M 7.554688 7.90625 "/>
        <path style=" stroke:none;fill-rule:nonzero;fill:#828282;fill-opacity:1;"
              d="M 7.773438 10.554688 C 8.6875 10.398438 9.613281 11.152344 9.644531 12.078125 C 9.726562 12.984375 8.925781 13.847656 8.015625 13.824219 C 7.195312 13.851562 6.4375 13.175781 6.367188 12.359375 C 6.25 11.507812 6.917969 10.648438 7.773438 10.554688 Z M 7.773438 10.554688 "/>
    </g>
</svg>
