<svg width="18" height="18" viewBox="0 0 18 18" fill="none" xmlns="http://www.w3.org/2000/svg">
    <path d="M0.527354 4.01615C0.818594 4.01615 1.05471 3.78004 1.05471 3.4888V1.05471H3.4888C3.78004 1.05471 4.01615 0.818594 4.01615 0.527354C4.01615 0.236114 3.78004 0 3.4888 0H0.527354C0.236114 0 0 0.236114 0 0.527354V3.4888C0 3.78007 0.236114 4.01615 0.527354 4.01615Z"
          fill="#828282"/>
    <path d="M17.4731 0H14.5116C14.2204 0 13.9843 0.236114 13.9843 0.527354C13.9843 0.818594 14.2204 1.05471 14.5116 1.05471H16.9457V3.4888C16.9457 3.78004 17.1818 4.01615 17.4731 4.01615C17.7643 4.01615 18.0004 3.78004 18.0004 3.4888V0.527354C18.0004 0.236114 17.7643 0 17.4731 0Z"
          fill="#828282"/>
    <path d="M17.4731 13.9835C17.1818 13.9835 16.9457 14.2196 16.9457 14.5109V16.945H14.5116C14.2204 16.945 13.9843 17.1811 13.9843 17.4723C13.9843 17.7636 14.2204 17.9997 14.5116 17.9997H17.4731C17.7643 17.9997 18.0004 17.7636 18.0004 17.4723V14.5109C18.0004 14.2196 17.7643 13.9835 17.4731 13.9835Z"
          fill="#828282"/>
    <path d="M3.4888 16.945H1.05471V14.5109C1.05471 14.2196 0.818594 13.9835 0.527354 13.9835C0.236114 13.9835 0 14.2196 0 14.5109V17.4723C0 17.7636 0.236114 17.9997 0.527354 17.9997H3.4888C3.78004 17.9997 4.01615 17.7636 4.01615 17.4723C4.01615 17.1811 3.78007 16.945 3.4888 16.945Z"
          fill="#828282"/>
    <path d="M14.7538 6.73043V3.40002C14.7538 3.23478 14.6198 3.10083 14.4542 3.10083H9H3.54575C3.38016 3.10083 3.24622 3.23478 3.24622 3.40002V6.73043C3.24622 6.89602 3.38016 7.02997 3.54575 7.02997H5.13625C5.30149 7.02997 5.43544 6.89602 5.43544 6.73043V5.58959C5.43544 5.424 5.56974 5.29005 5.73497 5.29005H7.60567C7.77126 5.29005 7.90521 5.424 7.90521 5.58959V13.8212C7.90521 13.9868 7.77126 14.1208 7.60567 14.1208H6.78757C6.62198 14.1208 6.48804 14.2547 6.48804 14.4203V16.0108C6.48804 16.176 6.62198 16.31 6.78757 16.31H9H11.2124C11.378 16.31 11.512 16.176 11.512 16.0108V14.4203C11.512 14.2547 11.378 14.1208 11.2124 14.1208H10.3943C10.2287 14.1208 10.0948 13.9868 10.0948 13.8212V5.58959C10.0948 5.424 10.2287 5.29005 10.3943 5.29005H12.265C12.4303 5.29005 12.5646 5.424 12.5646 5.58959V6.73043C12.5646 6.89602 12.6985 7.02997 12.8637 7.02997H14.4542C14.6198 7.02997 14.7538 6.89602 14.7538 6.73043Z"
          fill="#828282"/>
</svg>
