<svg width="18" height="18" viewBox="0 0 18 18" fill="none" xmlns="http://www.w3.org/2000/svg">
    <rect x="0.75" y="0.75" width="16.4998" height="16.4998" rx="1.25" fill="#E8F1F8" fill-opacity="0.3"
          stroke="#828282" stroke-width="1.5"/>
    <path d="M0.527342 4.01606C0.818575 4.01606 1.05468 3.77995 1.05468 3.48872V1.05468H3.48872C3.77995 1.05468 4.01606 0.818575 4.01606 0.527342C4.01606 0.236108 3.77995 0 3.48872 0H0.527342C0.236108 0 0 0.236108 0 0.527342V3.48872C0 3.77999 0.236108 4.01606 0.527342 4.01606Z"
          fill="#828282"/>
    <path d="M17.4726 0H14.5112C14.22 0 13.9839 0.236108 13.9839 0.527342C13.9839 0.818575 14.22 1.05468 14.5112 1.05468H16.9453V3.48872C16.9453 3.77995 17.1814 4.01606 17.4726 4.01606C17.7638 4.01606 17.9999 3.77995 17.9999 3.48872V0.527342C17.9999 0.236108 17.7638 0 17.4726 0Z"
          fill="#828282"/>
    <path d="M17.4726 13.9828C17.1814 13.9828 16.9453 14.2189 16.9453 14.5101V16.9442H14.5112C14.22 16.9442 13.9839 17.1803 13.9839 17.4715C13.9839 17.7627 14.22 17.9988 14.5112 17.9988H17.4726C17.7638 17.9988 17.9999 17.7627 17.9999 17.4715V14.5101C17.9999 14.2189 17.7638 13.9828 17.4726 13.9828Z"
          fill="#828282"/>
    <path d="M3.48872 16.9442H1.05468V14.5101C1.05468 14.2189 0.818575 13.9828 0.527342 13.9828C0.236108 13.9828 0 14.2189 0 14.5101V17.4715C0 17.7627 0.236108 17.9988 0.527342 17.9988H3.48872C3.77995 17.9988 4.01606 17.7627 4.01606 17.4715C4.01606 17.1803 3.77999 16.9442 3.48872 16.9442Z"
          fill="#828282"/>
    <path d="M14.7534 6.73059V3.40025C14.7534 3.23502 14.6194 3.10107 14.4539 3.10107H8.99974H3.54562C3.38004 3.10107 3.24609 3.23502 3.24609 3.40025V6.73059C3.24609 6.89618 3.38004 7.03012 3.54562 7.03012H5.13609C5.30132 7.03012 5.43526 6.89618 5.43526 6.73059V5.58978C5.43526 5.42419 5.56956 5.29025 5.73479 5.29025H7.60545C7.77104 5.29025 7.90498 5.42419 7.90498 5.58978V13.8212C7.90498 13.9868 7.77104 14.1208 7.60545 14.1208H6.78737C6.62178 14.1208 6.48784 14.2547 6.48784 14.4203V16.0108C6.48784 16.176 6.62178 16.3099 6.78737 16.3099H8.99974H11.2121C11.3777 16.3099 11.5116 16.176 11.5116 16.0108V14.4203C11.5116 14.2547 11.3777 14.1208 11.2121 14.1208H10.394C10.2284 14.1208 10.0945 13.9868 10.0945 13.8212V5.58978C10.0945 5.42419 10.2284 5.29025 10.394 5.29025H12.2647C12.4299 5.29025 12.5642 5.42419 12.5642 5.58978V6.73059C12.5642 6.89618 12.6982 7.03012 12.8634 7.03012H14.4539C14.6194 7.03012 14.7534 6.89618 14.7534 6.73059Z"
          fill="#828282"/>
</svg>
