<svg width="24" height="24" viewBox="0 0 24 24" fill="none" xmlns="http://www.w3.org/2000/svg">
    <path d="M5.14498 21.002C5.10487 21.0021 5.06479 20.9998 5.02498 20.995H4.98898C4.72664 20.9939 4.47524 20.8897 4.28898 20.705L3.28898 19.705C3.16801 19.5821 3.08066 19.4302 3.0353 19.2638C2.98995 19.0975 2.98811 18.9222 3.02998 18.755L5.02498 10.702C5.10596 10.391 5.26066 10.1042 5.47598 9.86572C5.6913 9.62725 5.96091 9.44416 6.26198 9.33196L11.677 7.15896L11.088 6.55896C11.0411 6.51248 11.0039 6.45717 10.9785 6.39625C10.9531 6.33532 10.9401 6.26996 10.9401 6.20396C10.9401 6.13795 10.9531 6.0726 10.9785 6.01167C11.0039 5.95074 11.0411 5.89544 11.088 5.84896L13.781 3.14896C13.8747 3.05522 14.0019 3.00256 14.1345 3.00256C14.2671 3.00256 14.3942 3.05522 14.488 3.14896L20.83 9.50796C20.8832 9.55488 20.9258 9.61258 20.955 9.67724C20.9842 9.74189 20.9993 9.81202 20.9993 9.88296C20.9993 9.95389 20.9842 10.024 20.955 10.0887C20.9258 10.1533 20.8832 10.211 20.83 10.258L18.138 12.958C18.0915 13.0045 18.0364 13.0415 17.9756 13.0667C17.9149 13.0919 17.8497 13.1049 17.784 13.1049C17.7182 13.1049 17.6531 13.0919 17.5923 13.0667C17.5316 13.0415 17.4764 13.0045 17.43 12.958L16.83 12.368L14.666 17.796C14.5493 18.0897 14.3647 18.3516 14.1272 18.5602C13.8898 18.7687 13.6063 18.9181 13.3 18.996L5.26198 20.996C5.22313 21.0003 5.18406 21.0023 5.14498 21.002ZM10.011 12.497C10.4088 12.497 10.7903 12.655 11.0716 12.9363C11.3529 13.2176 11.511 13.5991 11.511 13.997C11.511 14.3948 11.3529 14.7763 11.0716 15.0576C10.7903 15.3389 10.4088 15.497 10.011 15.497C9.92748 15.4976 9.84493 15.5147 9.76806 15.5473C9.69118 15.5799 9.62149 15.6274 9.56298 15.687L6.71098 18.546L12.854 17.016L15.327 10.788L13.233 8.68796L7.01898 11.178L5.47398 17.302L8.32598 14.443C8.44567 14.3236 8.51357 14.162 8.51498 13.993C8.51603 13.5965 8.67399 13.2166 8.95431 12.9363C9.23464 12.656 9.61454 12.498 10.011 12.497Z"
          fill="#828282"/>
</svg>
