<svg width="24" height="24" viewBox="0 0 24 24" fill="none" xmlns="http://www.w3.org/2000/svg">
    <path d="M13.174 22H6C5.46957 22 4.96086 21.7893 4.58579 21.4142C4.21071 21.0391 4 20.5304 4 20V4C4 3.46957 4.21071 2.96086 4.58579 2.58579C4.96086 2.21071 5.46957 2 6 2H18C18.5304 2 19.0391 2.21071 19.4142 2.58579C19.7893 2.96086 20 3.46957 20 4V15.17C19.9989 15.7027 19.7867 16.2133 19.41 16.59L14.59 21.41C14.2144 21.7859 13.7054 21.998 13.174 22ZM14 15C13.7348 15 13.4804 15.1054 13.2929 15.2929C13.1054 15.4804 13 15.7348 13 16V20.18L18.18 15H14ZM7.5 10C7.36739 10 7.24021 10.0527 7.14645 10.1464C7.05268 10.2402 7 10.3674 7 10.5V11.5C7 11.6326 7.05268 11.7598 7.14645 11.8536C7.24021 11.9473 7.36739 12 7.5 12H12.5C12.6326 12 12.7598 11.9473 12.8536 11.8536C12.9473 11.7598 13 11.6326 13 11.5V10.5C13 10.3674 12.9473 10.2402 12.8536 10.1464C12.7598 10.0527 12.6326 10 12.5 10H7.5ZM7.5 6C7.36739 6 7.24021 6.05268 7.14645 6.14645C7.05268 6.24021 7 6.36739 7 6.5V7.5C7 7.63261 7.05268 7.75979 7.14645 7.85355C7.24021 7.94732 7.36739 8 7.5 8H16.5C16.6326 8 16.7598 7.94732 16.8536 7.85355C16.9473 7.75979 17 7.63261 17 7.5V6.5C17 6.36739 16.9473 6.24021 16.8536 6.14645C16.7598 6.05268 16.6326 6 16.5 6H7.5Z"
          fill="#828282"/>
</svg>
