<svg width="38" height="49" viewBox="0 0 38 49" fill="none" xmlns="http://www.w3.org/2000/svg">
    <path d="M21.7882 48.123H4.75C3.49022 48.123 2.28204 47.6173 1.39124 46.7172C0.500445 45.817 0 44.5961 0 43.323V4.92305C0 3.65001 0.500445 2.42911 1.39124 1.52893C2.28204 0.62876 3.49022 0.123047 4.75 0.123047L33.25 0.123047C34.5098 0.123047 35.718 0.62876 36.6088 1.52893C37.4996 2.42911 38 3.65001 38 4.92305V31.731C37.9973 33.0096 37.4935 34.235 36.5988 35.139L25.1513 46.707C24.2593 47.6093 23.0503 48.1184 21.7882 48.123ZM23.75 31.323C23.1201 31.323 22.516 31.5759 22.0706 32.026C21.6252 32.4761 21.375 33.0865 21.375 33.723V43.7551L33.6775 31.323H23.75ZM8.3125 19.323C7.99756 19.323 7.69551 19.4495 7.47281 19.6745C7.25011 19.8996 7.125 20.2048 7.125 20.523V22.923C7.125 23.2413 7.25011 23.5465 7.47281 23.7716C7.69551 23.9966 7.99756 24.123 8.3125 24.123H20.1875C20.5024 24.123 20.8045 23.9966 21.0272 23.7716C21.2499 23.5465 21.375 23.2413 21.375 22.923V20.523C21.375 20.2048 21.2499 19.8996 21.0272 19.6745C20.8045 19.4495 20.5024 19.323 20.1875 19.323H8.3125ZM8.3125 9.72305C7.99756 9.72305 7.69551 9.84948 7.47281 10.0745C7.25011 10.2996 7.125 10.6048 7.125 10.923V13.323C7.125 13.6413 7.25011 13.9465 7.47281 14.1716C7.69551 14.3966 7.99756 14.523 8.3125 14.523H29.6875C30.0024 14.523 30.3045 14.3966 30.5272 14.1716C30.7499 13.9465 30.875 13.6413 30.875 13.323V10.923C30.875 10.6048 30.7499 10.2996 30.5272 10.0745C30.3045 9.84948 30.0024 9.72305 29.6875 9.72305H8.3125Z"
          fill="white"/>
</svg>
